<svg width="52" height="52" viewBox="0 0 52 52" fill="none" xmlns="http://www.w3.org/2000/svg">
<path d="M25.9997 47.6666C23.0024 47.6666 20.1858 47.0975 17.5497 45.9592C14.9136 44.821 12.6205 43.2776 10.6705 41.3291C8.72051 39.3791 7.17712 37.086 6.04034 34.4499C4.90356 31.8138 4.33445 28.9971 4.33301 25.9999C4.33301 23.0027 4.90212 20.186 6.04034 17.5499C7.17856 14.9138 8.72195 12.6208 10.6705 10.6708C12.6205 8.72075 14.9136 7.17736 17.5497 6.04059C20.1858 4.90381 23.0024 4.3347 25.9997 4.33325C28.9969 4.33325 31.8136 4.90236 34.4497 6.04059C37.0858 7.17881 39.3788 8.7222 41.3288 10.6708C43.2788 12.6208 44.8229 14.9138 45.9612 17.5499C47.0994 20.186 47.6678 23.0027 47.6663 25.9999C47.6663 28.9971 47.0972 31.8138 45.959 34.4499C44.8208 37.086 43.2774 39.3791 41.3288 41.3291C39.3788 43.2791 37.0858 44.8232 34.4497 45.9614C31.8136 47.0996 28.9969 47.668 25.9997 47.6666Z" fill="white"/>
<path d="M20.583 35.7499L35.7497 25.9999L20.583 16.2499V35.7499ZM25.9997 47.6666C23.0024 47.6666 20.1858 47.0975 17.5497 45.9592C14.9136 44.821 12.6205 43.2776 10.6705 41.3291C8.72051 39.3791 7.17712 37.086 6.04034 34.4499C4.90356 31.8138 4.33445 28.9971 4.33301 25.9999C4.33301 23.0027 4.90212 20.186 6.04034 17.5499C7.17856 14.9138 8.72195 12.6208 10.6705 10.6708C12.6205 8.72075 14.9136 7.17736 17.5497 6.04059C20.1858 4.90381 23.0024 4.3347 25.9997 4.33325C28.9969 4.33325 31.8136 4.90236 34.4497 6.04059C37.0858 7.17881 39.3788 8.7222 41.3288 10.6708C43.2788 12.6208 44.8229 14.9138 45.9612 17.5499C47.0994 20.186 47.6678 23.0027 47.6663 25.9999C47.6663 28.9971 47.0972 31.8138 45.959 34.4499C44.8208 37.086 43.2774 39.3791 41.3288 41.3291C39.3788 43.2791 37.0858 44.8232 34.4497 45.9614C31.8136 47.0996 28.9969 47.668 25.9997 47.6666Z" fill="#301A6F"/>
</svg>
