<svg width="54" height="58" viewBox="0 0 54 58" fill="none" xmlns="http://www.w3.org/2000/svg">
<g clip-path="url(#clip0_1198_2665)">
<path d="M21.4125 0.00317731C21.2877 0.00386753 21.162 0.0841911 20.9625 0.239058C20.7873 0.375116 20.5971 0.492797 20.537 0.501856C20.4819 0.510915 20.2467 0.461048 20.0264 0.388575C19.696 0.288926 19.5909 0.275294 19.4807 0.311703C19.3957 0.34328 19.3155 0.34328 19.2555 0.311703C19.1053 0.239058 19.0252 0.257176 18.9651 0.379516C18.92 0.461048 18.87 0.492797 18.7598 0.492797C18.6647 0.492797 18.5847 0.529034 18.5345 0.592447L18.4595 0.69201L18.2192 0.574329C18.0039 0.470107 17.9039 0.456647 17.2681 0.43387L16.5573 0.411352L16.392 0.556211C16.2268 0.701069 16.2118 0.705728 15.6762 0.728246C15.0204 0.755423 14.7701 0.837127 14.72 1.02288C14.66 1.24487 14.6049 1.27205 14.3145 1.24021C13.909 1.195 13.5586 1.30363 13.2383 1.57997C13.018 1.7703 12.943 1.80653 12.7827 1.80653C12.6776 1.80653 12.5124 1.77478 12.4073 1.73415C12.187 1.65261 11.5913 1.68419 11.2759 1.79747C11.1007 1.86089 11.0707 1.86089 10.9205 1.78841C10.8304 1.7432 10.6502 1.59826 10.52 1.4622C10.3949 1.3264 10.2497 1.21752 10.1996 1.21752C10.0744 1.21752 9.95434 1.39422 9.9143 1.6345C9.86426 1.93793 9.30355 2.76248 9.00823 2.96635C8.81298 3.09775 8.20723 3.32414 7.84686 3.39212C7.57146 3.44648 7.25112 3.56425 7.13093 3.65475C7.02084 3.73628 7.01584 3.89486 7.11092 4.06249C7.17105 4.17137 7.17097 4.23479 7.11592 4.47024C7.08089 4.62881 7.01584 4.79205 6.97072 4.83734C6.86063 4.94597 6.87064 5.2406 6.99073 5.40806C7.13594 5.60745 7.12593 5.92003 6.9658 6.11484C6.90066 6.20095 6.78056 6.35046 6.70542 6.45451C6.48515 6.74449 5.88441 7.22928 5.58408 7.3561C5.43387 7.41486 5.2287 7.46939 5.12353 7.46939C4.79318 7.46939 4.59794 7.57344 4.48284 7.81812C4.18243 8.45251 4.06224 8.61083 3.65174 8.87371C3.3414 9.07292 3.22631 9.30855 3.19128 9.82517L3.16117 10.2508L2.99604 10.2961C2.90096 10.3188 2.78578 10.4003 2.72565 10.4774C2.6656 10.5545 2.55551 10.6766 2.48036 10.7537C2.4053 10.8262 2.2752 11.0572 2.19004 11.2611C1.96477 11.8227 1.84959 12.004 1.58429 12.226C1.38404 12.3936 1.33901 12.4661 1.30898 12.6428C1.25894 12.9509 1.38913 13.2769 1.66444 13.5216C1.79964 13.6394 1.88462 13.7527 1.88462 13.8206C1.88462 13.875 1.89972 13.9973 1.91473 14.0879C1.93975 14.2284 1.92474 14.2737 1.78954 14.396C1.66936 14.5047 1.63934 14.5681 1.65935 14.6405C1.69447 14.7492 1.96978 15.0076 2.08987 15.0439C2.15001 15.062 2.15001 15.0801 2.08987 15.1843C2.03983 15.2659 2.02982 15.3791 2.05485 15.5965C2.08987 15.8637 2.07987 15.909 1.95476 16.1038C1.80456 16.3348 1.7395 16.5842 1.68946 17.1412L1.65935 17.5036L1.41916 17.6442C1.04869 17.8615 0.933594 17.9794 0.933594 18.1243C0.933594 18.2966 1.00865 18.4233 1.21391 18.5956C1.37412 18.7314 1.38413 18.754 1.38413 19.0575C1.38413 19.2342 1.35911 19.4833 1.329 19.6057C1.23392 20.018 1.45419 20.3352 1.8747 20.394C2.19004 20.4438 2.32023 20.5616 2.36026 20.856C2.39029 21.087 2.4053 21.1142 2.56043 21.1687C2.69562 21.2231 2.76076 21.3 2.90588 21.5674C3.00104 21.7485 3.08611 21.9389 3.09612 21.9886C3.10613 22.052 3.15617 22.0838 3.25625 22.0928C3.34641 22.1019 3.49161 22.1969 3.67184 22.3555C3.94215 22.6002 3.94215 22.6046 3.8871 22.7632C3.78694 23.0307 3.85699 23.1981 4.19244 23.4925C4.35766 23.6376 4.54289 23.8324 4.60294 23.9276C4.673 24.0407 4.75815 24.1087 4.85823 24.1315C4.97341 24.1587 5.02846 24.2085 5.06849 24.3126C5.14855 24.5346 5.56415 24.888 6.01969 25.119C6.50025 25.3637 6.76055 25.5901 6.85062 25.8392C6.91067 26.0025 6.93569 26.0206 7.10091 26.034C7.2361 26.0431 7.30616 26.0793 7.34619 26.1473C7.42125 26.2787 7.48639 26.315 7.6416 26.315C7.71166 26.315 7.84177 26.3559 7.93184 26.4056C8.022 26.4554 8.12717 26.4961 8.17221 26.4961C8.25227 26.4961 8.76786 26.2697 9.03825 26.1111C9.14834 26.0477 9.33858 25.9978 9.51881 25.9797C9.70905 25.9616 9.87427 25.9163 9.96935 25.853C10.1546 25.7261 10.4649 25.7034 11.1507 25.7624C11.7265 25.8121 12.0769 25.9209 12.3072 26.1202L12.4423 26.2334L12.5975 26.1339C12.6876 26.0749 12.8578 26.0115 12.983 25.9934C13.1032 25.9706 13.2983 25.8938 13.4134 25.8211C13.5286 25.7486 13.7138 25.6672 13.8189 25.6444C13.9241 25.6172 14.0642 25.5494 14.1243 25.4996C14.2094 25.4271 14.3546 25.3862 14.68 25.35C15.0855 25.3003 15.1255 25.2866 15.1505 25.1823C15.1755 25.0874 15.2257 25.0646 15.501 25.0194C15.8364 24.9604 17.4083 24.9423 17.6786 24.9966C17.7838 25.0147 17.8337 25.0556 17.8437 25.1281C17.8537 25.1914 17.9289 25.2595 18.049 25.3184C18.2442 25.4043 18.4996 25.64 18.5096 25.7396C18.5146 25.7714 18.5196 25.9028 18.5246 26.0387C18.5296 26.2244 18.5546 26.2969 18.6297 26.3465C18.915 26.5279 19.1203 26.6321 19.1903 26.6321C19.2355 26.6321 19.4157 26.5597 19.5909 26.4735C19.8963 26.324 19.9313 26.315 20.4018 26.315H20.8974L21.2027 26.614C21.6483 27.058 21.7785 27.3206 21.7985 27.8554C21.8135 28.2131 21.7986 28.3671 21.6934 28.7204C21.6233 28.9562 21.5532 29.2686 21.5332 29.4182C21.5132 29.5677 21.443 29.844 21.373 30.0298C21.3029 30.2155 21.2378 30.5009 21.2228 30.6638C21.1927 31.0126 21.2979 31.2845 21.6333 31.7287C21.7484 31.8782 21.9037 32.0955 21.9787 32.2133C22.0489 32.3312 22.224 32.5441 22.3642 32.689C22.4993 32.8295 22.6245 32.9925 22.6345 33.0514C22.6495 33.1102 22.6695 33.2008 22.6845 33.2597C22.6996 33.3231 22.7697 33.3911 22.8698 33.432C22.9799 33.4727 23.0399 33.5317 23.0501 33.6087C23.06 33.6721 23.1101 33.7626 23.1603 33.8126C23.3603 34.0165 23.5607 34.3561 23.5607 34.501C23.5607 34.6188 23.5908 34.664 23.6857 34.7049C23.7558 34.732 23.811 34.7683 23.811 34.7864C23.811 34.8047 23.7558 34.8544 23.6857 34.8953C23.5156 34.9949 23.5256 35.081 23.7608 35.3935C23.871 35.5385 23.9612 35.7061 23.9612 35.765C23.9612 35.8194 24.0612 36.0549 24.1864 36.286C24.4416 36.7571 24.4568 36.8613 24.3065 37.0788C24.1414 37.3279 24.1613 37.5635 24.3967 38.0256C24.5067 38.2475 24.6518 38.5646 24.7119 38.7278C24.8972 39.1988 24.7971 39.4389 24.3065 39.7017C24.0963 39.8149 23.901 40.1548 23.871 40.4628C23.8611 40.5942 23.811 40.7346 23.7708 40.7799C23.7208 40.8297 23.6707 41.0336 23.6307 41.3325C23.5806 41.7312 23.5508 41.8354 23.4205 42.0121C23.3354 42.1299 23.2553 42.3111 23.2403 42.4153C23.0801 43.6656 23.0501 44.318 23.1252 44.5898C23.1501 44.6623 23.2754 44.8163 23.4055 44.9296C23.5757 45.0791 23.6707 45.2104 23.7358 45.3871C23.7809 45.523 23.871 45.6861 23.9362 45.7496C24.0762 45.8945 24.2414 46.257 24.2865 46.5197C24.3466 46.9093 24.4718 47.154 24.8121 47.5888C25.1925 48.069 25.2426 48.1959 25.1675 48.4541C25.0825 48.7304 25.1026 49.0113 25.2426 49.4236C25.3477 49.7452 25.3678 49.8585 25.3426 50.1439C25.3177 50.4202 25.3327 50.538 25.413 50.7418C25.4679 50.8868 25.513 51.068 25.513 51.145C25.513 51.4033 25.6782 52.1145 25.7732 52.273C26.0536 52.7351 26.2039 52.9299 26.3391 52.9978C26.5493 53.1021 26.8295 53.7272 26.8196 54.076C26.8145 54.3614 26.9497 54.6877 27.1149 54.7647C27.1748 54.7919 27.2802 54.9233 27.3501 55.0501C27.4153 55.1814 27.5253 55.3536 27.5953 55.4396C27.6905 55.5575 27.7157 55.6526 27.7157 55.8474C27.7157 56.16 27.6857 56.2053 27.4652 56.2234C27.345 56.2324 27.285 56.2641 27.2751 56.3185C27.2351 56.4951 27.3252 56.7217 27.4952 56.8893C27.6857 57.0796 27.7055 57.1702 27.5854 57.2608C27.5103 57.3152 27.5153 57.3288 27.6154 57.4012C27.6755 57.4465 27.8107 57.4964 27.9158 57.51C28.056 57.5326 28.1711 57.596 28.3463 57.7591C28.4815 57.8814 28.6268 57.9811 28.6667 57.9811C28.7118 57.9811 28.8469 57.9222 28.972 57.8498C29.1822 57.7229 29.6079 57.6187 30.0233 57.596C30.1234 57.587 30.2786 57.5372 30.3637 57.4783C30.4688 57.4058 30.5739 57.3785 30.6941 57.3876C31.0245 57.4103 31.2949 57.4012 31.5402 57.3695C31.6904 57.3469 31.9106 57.3559 32.1158 57.3922C32.4513 57.4466 32.4564 57.4465 32.8268 57.297C33.0971 57.1838 33.2623 57.1476 33.4475 57.1521C33.6526 57.1566 33.7229 57.1339 33.8581 57.0252C33.9882 56.9256 34.0683 56.8984 34.2183 56.9029C34.3787 56.9075 34.4585 56.8757 34.6538 56.7308C35.1194 56.382 35.8302 55.7386 35.9505 55.5529C36.0506 55.3988 36.1107 55.3581 36.2957 55.3128C36.4561 55.2766 36.5562 55.2177 36.6412 55.1135C37.1419 54.4928 37.5072 53.9945 37.7526 53.5958C37.9829 53.2289 38.068 53.1292 38.1731 53.1065C38.4135 53.0612 38.4285 53.0477 38.4285 52.9028C38.4285 52.8211 38.5035 52.631 38.5985 52.4815C38.7839 52.1734 38.9191 51.6887 38.9791 51.1088C39.014 50.7373 39.0241 50.7192 39.2293 50.5289C39.4898 50.2888 39.9052 50.085 40.2906 50.0125C40.5108 49.9717 40.636 49.9128 40.8163 49.7633L41.0566 49.5685L41.0616 49.1427C41.0665 48.8709 41.0966 48.6443 41.1467 48.5175C41.2569 48.2593 41.2518 48.1415 41.1317 47.9195C41.0616 47.7972 41.0365 47.693 41.0566 47.5934C41.0767 47.4937 41.0566 47.3804 40.9863 47.2445C40.9314 47.1313 40.8814 46.9727 40.8814 46.8912C40.8814 46.7915 40.8412 46.7145 40.7562 46.6465C40.4807 46.4291 40.6661 46.044 41.0815 45.9761C41.4922 45.9081 41.5721 45.8583 41.6372 45.659C41.6874 45.5139 41.7925 45.3917 42.0977 45.147C42.3131 44.9704 42.6033 44.6985 42.7387 44.54C43.0139 44.2183 43.3444 44.0235 43.7547 43.942C43.9751 43.8967 44.1001 43.8287 44.4255 43.5706C44.8412 43.2443 44.8811 43.19 44.9111 42.9136C44.9211 42.7867 44.9962 42.6871 45.2515 42.4515C45.6871 42.0393 45.7571 41.9079 45.712 41.5863C45.6921 41.4458 45.6822 41.1197 45.6871 40.8569C45.7171 39.3166 45.7222 39.2487 45.8072 39.0947C45.9223 38.8954 45.8774 38.7504 45.6471 38.6191C45.1565 38.3337 44.9363 38.03 44.9363 37.6314C44.9363 37.5363 44.8913 37.3732 44.8412 37.269C44.7861 37.1603 44.721 36.9202 44.691 36.7344C44.6309 36.3766 44.6609 36.1908 44.8061 36.0006C44.9664 35.7966 44.8811 35.5157 44.5909 35.2665C44.4106 35.1082 44.3956 34.9859 44.5357 34.7411C44.6558 34.5238 44.7809 34.4602 45.0814 34.4513C45.3116 34.4467 45.3116 34.4467 45.3266 34.2791C45.3467 34.0571 45.2716 33.9393 45.0863 33.9031C44.9111 33.8669 44.9012 33.8214 45.0313 33.6675C45.0863 33.6087 45.1466 33.4636 45.1616 33.3459C45.2266 32.8657 45.2416 32.8339 45.4668 32.6301C45.587 32.5167 45.6871 32.399 45.6871 32.3628C45.6871 32.331 45.8322 32.1636 46.0124 31.9959C46.1926 31.8283 46.3377 31.656 46.3377 31.6154C46.3377 31.5293 46.7834 31.0581 47.1587 30.7547C47.2941 30.6413 47.4943 30.4285 47.6044 30.2789C47.9998 29.7444 49.1163 28.7795 49.6669 28.4941C50.0625 28.2902 50.2475 28.1269 50.3677 27.8779C50.4528 27.7057 50.608 27.5426 50.9785 27.2347C51.489 26.8088 51.5693 26.6955 51.7143 26.2244C51.7643 26.0612 51.8744 25.88 52.0348 25.7034C52.35 25.35 52.4052 25.2548 52.4503 24.9739C52.4702 24.8427 52.5203 24.6706 52.5653 24.5891C52.6053 24.503 52.6753 24.3444 52.7204 24.2401C52.8107 23.9954 53.2461 23.2889 53.4863 22.9944C53.7218 22.6998 53.7919 22.505 53.7969 22.1244C53.7969 21.9389 53.8318 21.762 53.872 21.6942C53.9119 21.6308 53.9421 21.4994 53.9421 21.3998C53.9421 21.3 53.9119 21.1687 53.872 21.1053C53.8318 21.0417 53.8018 20.9286 53.7969 20.8516C53.7969 20.7111 53.6666 20.5616 53.5516 20.5616C53.5164 20.5616 53.4065 20.6113 53.3064 20.6749C52.9859 20.8741 52.35 21.0736 52.1349 21.0417C52.0096 21.0236 51.8696 21.0417 51.6942 21.1053C51.5542 21.155 51.3338 21.1959 51.1986 21.1959C50.9884 21.1959 50.9333 21.2184 50.7732 21.3589L50.5829 21.5265L50.1776 21.4994C49.8171 21.4723 49.7219 21.4812 49.3064 21.6037C48.7657 21.7622 48.3953 21.7801 48.2752 21.6579C48.2301 21.6127 48.1551 21.4723 48.11 21.3408C48 21.0417 47.8948 20.9511 47.6395 20.9602C47.4943 20.9647 47.4293 20.9466 47.3942 20.8878C47.3241 20.7699 47.4191 20.6521 47.5843 20.6521C47.7697 20.6521 47.8597 20.5526 47.8147 20.394C47.7997 20.3215 47.7697 20.1901 47.7546 20.0951C47.7345 19.95 47.6996 19.9094 47.5645 19.8548C47.4692 19.8233 47.3792 19.7461 47.3592 19.6918C47.3391 19.6328 47.259 19.5014 47.1839 19.3974C47.1037 19.2932 47.0388 19.1889 47.0388 19.1663C47.0388 19.0893 46.8634 18.9853 46.6381 18.9307C46.5131 18.9035 46.3779 18.8717 46.3278 18.8582C46.2828 18.8445 46.2127 18.7586 46.1728 18.6681C46.0977 18.5005 45.7321 18.1833 45.4119 18.0021C45.3317 17.9523 45.1764 17.8479 45.0713 17.7665C44.9713 17.6848 44.8562 17.617 44.816 17.617C44.6958 17.617 44.5257 17.3813 44.5558 17.2545C44.5958 17.0778 44.3305 16.0947 44.1251 15.6691C43.9601 15.3201 43.9499 15.3067 43.7799 15.3067C43.6546 15.3067 43.6297 15.2839 43.6047 15.1706C43.5795 15.0664 43.5444 15.0348 43.4594 15.0348C43.1091 15.0348 42.8838 14.5862 42.8838 13.8887C42.8838 13.363 42.8238 13.1184 42.5735 12.6247C42.3131 12.1264 42.1178 11.8817 41.9427 11.8501C41.6072 11.7865 41.3621 11.4015 41.4822 11.1161C41.512 11.0481 41.5321 10.9394 41.5321 10.867C41.5321 10.7627 41.5072 10.7265 41.4071 10.7038C41.2719 10.6722 41.1818 10.5635 41.1818 10.4231C41.1818 10.3142 40.8064 9.65753 40.6561 9.50802C40.591 9.4446 40.5059 9.33132 40.466 9.25419C40.421 9.18181 40.2957 9.03229 40.1855 8.93264C39.9853 8.75594 39.9803 8.73783 39.9803 8.44319C39.9803 8.16245 39.9703 8.1307 39.825 8.02199C39.2092 7.5328 38.5586 6.42734 38.7737 6.21907C38.7989 6.19629 38.7087 5.96067 38.5484 5.64369C38.3985 5.34931 38.2783 5.09108 38.2783 5.07297C38.2783 5.05019 38.3383 5.04113 38.4183 5.05019C38.6186 5.07737 38.5135 5.04113 37.9178 4.88721C37.3621 4.74209 37.277 4.74675 37.1317 4.90533C37.0969 4.94157 37.0016 4.98686 36.9167 5.00032C36.8166 5.0231 36.7313 5.08642 36.6664 5.18625C36.6111 5.27218 36.5261 5.36277 36.476 5.38529C36.3408 5.4487 36.0806 5.43981 35.7902 5.36277C35.6499 5.32653 35.4149 5.27218 35.2696 5.24949C35.1194 5.22231 34.9344 5.1589 34.8592 5.1092C34.7791 5.05468 34.5187 4.9778 34.2585 4.93251C34.0032 4.88721 33.7577 4.83286 33.7127 4.81923C33.6577 4.80111 33.6076 4.81923 33.5625 4.88255C33.4625 5.0275 33.3873 5.00032 33.2171 4.75115C33.1371 4.62881 33.0269 4.52011 32.9818 4.50647C32.9368 4.49741 32.6364 4.4749 32.321 4.45678C31.5802 4.42054 31.5703 4.41588 31.5703 4.23479C31.5703 4.05809 31.4451 3.93575 31.2149 3.89512C31.1047 3.877 31.0245 3.82239 30.9695 3.73188C30.8442 3.52361 30.6292 3.52361 30.3739 3.73188C30.2387 3.8405 30.0684 3.92221 29.8431 3.98096C29.4478 4.08527 29.3927 4.12151 29.3174 4.32072C29.2724 4.44306 29.2826 4.51553 29.3675 4.73304C29.4226 4.87815 29.4676 5.04562 29.4676 5.10454C29.4676 5.29936 29.3126 5.52135 29.0921 5.63463C28.8019 5.78854 28.6268 5.77957 28.3364 5.58933C27.8308 5.25846 27.8058 5.24949 27.4802 5.24949C27.1849 5.24949 26.9545 5.19073 26.3289 4.95503C26.1387 4.87815 25.9486 4.65616 25.8635 4.41148C25.7332 4.03998 25.6481 3.98562 25.0723 3.94939C24.7121 3.92221 24.677 3.91324 24.5217 3.76363C24.3766 3.62783 24.2965 3.596 23.996 3.54613C23.796 3.51455 23.5356 3.48737 23.4106 3.48271C23.03 3.47831 22.8147 3.40567 22.6996 3.22898C22.5945 3.07057 22.5344 3.04779 22.4142 3.11587C22.3642 3.14744 22.2941 3.12493 22.194 3.04779C22.1139 2.98887 22.0338 2.93917 22.0087 2.93917C21.9887 2.93917 21.9437 2.88016 21.9087 2.80777C21.8235 2.61762 21.9287 2.43627 22.1589 2.36845C22.269 2.33662 22.3491 2.27329 22.3842 2.19616C22.4142 2.13274 22.4893 2.03758 22.5494 1.98763C22.7346 1.83371 22.6996 1.61172 22.4593 1.39879C22.284 1.24487 22.2591 1.195 22.2591 1.02288C22.2591 0.864305 22.2941 0.782859 22.4393 0.615224C22.6095 0.415752 22.6295 0.311703 22.4893 0.311703C22.4543 0.311703 22.3742 0.361398 22.3091 0.424811L22.189 0.538093L21.9387 0.316103C21.694 0.104294 21.5539 0.0024871 21.4125 0.00317731Z" fill="#A52422"/>
<path d="M44.6712 34.9043C44.6111 34.9586 44.6312 35.0447 44.7363 35.1534L44.8313 35.262L44.8364 35.1444C44.8364 35.0174 44.7264 34.8543 44.6712 34.9043Z" fill="#A52422"/>
<path d="M52.2451 39.8149C52.1951 39.8149 52.075 39.8965 51.9747 39.9961C51.8746 40.0958 51.7945 40.1954 51.7945 40.2135C51.7945 40.2361 51.8497 40.2951 51.9197 40.3494C51.99 40.4038 52.0449 40.4719 52.0449 40.5035C52.0449 40.5896 51.5544 40.9927 51.4493 40.9927C51.309 40.9927 51.194 41.115 51.194 41.2601C51.194 41.3325 51.1438 41.4277 51.0687 41.4911C50.9886 41.559 50.9437 41.6451 50.9437 41.7312C50.9437 41.8581 50.9335 41.8625 50.7884 41.8354C50.6032 41.8037 50.443 41.8716 50.443 41.9849C50.443 42.0936 50.3277 42.1797 50.2078 42.1616C50.1426 42.1524 50.1126 42.1797 50.1027 42.2612C50.0777 42.4289 49.9675 42.5149 49.6169 42.6417C49.4418 42.7051 49.2264 42.7958 49.1315 42.8502C49.0414 42.9 48.9161 42.9407 48.8612 42.9407C48.801 42.9407 48.6959 42.9816 48.6209 43.0359C48.5457 43.0858 48.4255 43.1446 48.3505 43.1627C48.2354 43.1899 48.2153 43.2217 48.2003 43.3757C48.1904 43.4844 48.1402 43.5977 48.0652 43.6656C47.905 43.8241 47.8098 44.0054 47.7146 44.3452C47.6196 44.6803 47.6446 44.8072 47.8449 45.011C47.9249 45.0926 47.9999 45.2194 48.02 45.2874C48.0351 45.3554 48.0702 45.4686 48.0952 45.541C48.1802 45.7811 48.1453 46.0756 48.0152 46.2704C47.8398 46.5332 47.7999 46.6103 47.7398 46.8232C47.7047 46.95 47.5995 47.104 47.4193 47.2761C47.2742 47.4211 47.1141 47.6023 47.069 47.6839C46.9338 47.924 46.9637 48.2185 47.164 48.5582C47.2841 48.7756 47.3493 48.9614 47.3842 49.2196C47.4895 49.9671 47.5245 50.0531 47.8347 50.3159C47.99 50.4472 48.1853 50.5696 48.2703 50.5922C48.6109 50.6783 49.1765 50.4971 49.7621 50.1211C50.1225 49.8901 50.1525 49.8403 50.2678 49.2423C50.3129 49.0067 50.3928 48.7802 50.4881 48.6352C50.5832 48.4857 50.6683 48.2502 50.7184 47.9965C50.7734 47.7338 50.8485 47.5298 50.9335 47.4165C51.0288 47.2852 51.0636 47.1674 51.0738 46.9862C51.0837 46.7778 51.1087 46.7144 51.2339 46.5921C51.374 46.4652 51.4691 46.2705 51.6745 45.7042C51.7145 45.5955 51.8047 45.4505 51.8746 45.3825C52.0299 45.233 52.09 45.0156 52.0951 44.5898C52.0951 44.1911 52.1951 43.874 52.4204 43.5795C52.5655 43.3893 52.5956 43.3123 52.5956 43.1084C52.5956 42.8184 52.6256 42.7822 52.7857 42.8773C52.9611 42.9815 53.066 42.9272 53.0261 42.7505C53.0111 42.6735 53.021 42.4969 53.051 42.3564C53.1062 42.1253 53.1011 42.0845 53.0011 41.9078C52.9059 41.7402 52.896 41.6496 52.9008 41.2057C52.911 40.73 52.9059 40.6802 52.7857 40.4945C52.7157 40.3812 52.6407 40.2226 52.6206 40.1456C52.5856 39.987 52.3904 39.8149 52.2451 39.8149Z" fill="#A52422"/>
<g clip-path="url(#clip1_1198_2665)">
<path d="M428.845 36.8622C428.729 25.1646 428.137 13.5491 427.035 2.11465C423.333 -36.0057 414.218 -72.5465 400.563 -106.801C399.543 -109.351 398.605 -111.934 397.519 -114.451C379.323 -157.441 353.772 -196.581 322.496 -230.358C320.44 -232.563 318.35 -234.735 316.261 -236.874C310.354 -243.01 304.283 -248.999 297.998 -254.741C226.891 -319.481 132.454 -359 28.9352 -359C-75.4556 -359 -170.567 -318.774 -241.872 -253.046C-258.489 -237.729 -273.757 -221.013 -287.61 -203.113C-339.863 -135.526 -371.057 -50.8622 -371.057 40.9918C-371.057 261.57 -191.61 441 28.9516 441C184.098 441 318.794 352.157 385.098 222.709C399.28 195.036 410.319 165.537 417.756 134.623C419.648 126.775 421.276 118.894 422.691 110.915C426.722 88.1938 428.927 64.8314 428.927 40.9918C428.943 39.6098 428.861 38.2442 428.845 36.8622ZM353.558 -123.006L355.878 -125.606C358.922 -119.699 361.768 -113.694 364.483 -107.607L360.699 -107.755L353.558 -106.768V-123.006ZM295.761 -192.797L295.827 -210.665C302.112 -204.002 308.166 -197.141 313.957 -190.033L306.751 -179.306L281.562 -179.537L279.983 -184.785L295.761 -192.797ZM-186.756 -237.203V-237.877H-178.744L-178.053 -240.625H-164.94V-234.899L-168.708 -229.865H-186.773L-186.756 -237.203ZM-173.956 -219.352C-173.956 -219.352 -165.944 -220.717 -165.253 -220.717C-164.562 -220.717 -165.253 -212.721 -165.253 -212.721L-183.318 -211.586L-186.756 -215.699L-173.956 -219.352ZM379.043 -60.5692H349.774L331.94 -73.8463L313.168 -72.0201V-60.5692H307.228L300.812 -65.1429L268.302 -73.3856V-94.4447L227.105 -91.2365L214.338 -84.3759H197.984L189.972 -85.182L170.114 -74.1589V-53.4124L129.525 -24.127L132.898 -11.6231H141.124L138.969 0.288422L133.178 2.41077L132.865 33.5388L167.942 73.4854H183.21L184.131 71.0504H211.574L219.487 63.7291H235.051L243.59 72.2843L266.788 74.6864L263.711 105.535L289.46 150.993L275.903 176.905L276.824 189.113L287.502 199.758V229.109L301.519 247.963V272.346H313.628C246.239 355.085 143.674 408.079 28.9187 408.079C-173.479 408.095 -338.152 243.406 -338.152 40.9918C-338.152 -9.96143 -327.688 -58.5291 -308.85 -102.671V-114.122L-295.721 -130.064C-291.164 -138.669 -286.277 -147.06 -281.062 -155.236L-280.469 -148.573L-295.721 -130.064C-300.443 -121.147 -304.836 -112.032 -308.834 -102.671V-81.7763L-293.582 -74.4386V-45.4L-278.956 -20.4417L-267.061 -18.6154L-265.531 -27.1707L-279.565 -48.8221L-282.312 -69.8648H-274.086L-270.614 -48.2134L-250.329 -18.6154L-255.56 -9.05655L-242.662 10.6699L-210.629 18.6V13.4175L-197.812 15.2437L-199.03 24.3913L-188.961 26.2339L-173.413 30.4787L-151.449 55.5028L-123.398 57.6252L-120.65 80.5106L-139.85 93.9357L-140.755 114.37L-143.503 126.874L-115.731 161.638L-113.609 173.549C-113.609 173.549 -103.54 176.28 -102.306 176.28C-101.089 176.28 -79.7332 192.453 -79.7332 192.453V255.285L-72.1158 257.424L-77.2983 286.413L-64.4818 303.507L-66.851 332.233L-49.9214 361.995L-28.1877 380.982L-6.33893 381.376L-4.20007 374.351L-20.2577 360.827L-19.3363 354.115L-16.4572 345.888L-15.8484 337.498L-26.707 337.169L-32.1857 330.292L-23.1697 321.621L-21.9523 315.073L-32.0211 312.194L-31.4289 306.106L-17.0824 303.935L4.73358 293.455L12.0549 280.029L34.9403 250.744L29.7413 227.842L36.7665 215.651L57.8092 216.293L71.9747 205.072L76.5485 160.881L92.2606 140.924L95.0081 128.107L80.6781 123.517L71.2179 108.003L38.8889 107.674L13.256 97.9008L12.0385 79.6221L3.48318 64.6668L-19.6983 64.3213L-33.0906 43.2951L-44.9857 37.4874L-45.5944 43.9039L-67.2458 45.1871L-75.1759 34.1476L-97.7651 29.5573L-116.373 51.0607L-145.658 46.092L-147.781 13.0884L-169.152 9.43597L-160.581 -6.7532L-163.032 -16.0489L-191.116 2.72339L-208.786 0.568115L-215.087 -13.2355L-211.238 -27.4669L-201.498 -45.4165L-179.073 -56.7686L-135.77 -56.7851L-135.885 -43.5738L-120.321 -36.3347L-121.555 -58.9075L-110.335 -70.1938L-87.6962 -85.0668L-86.1497 -95.5306L-63.577 -119.025L-39.5728 -132.318L-41.6952 -134.062L-25.4402 -149.363L-19.4844 -147.784L-16.7533 -144.361L-10.5836 -151.206L-9.07001 -151.88L-15.832 -152.834L-22.6926 -155.121V-161.702L-19.0566 -164.68H-11.0443L-7.37543 -163.068L-4.20007 -156.651L-0.317291 -157.244V-157.803L0.801453 -157.425L12.0549 -159.152L13.6508 -164.647L20.0673 -163.035V-157.079L14.1115 -152.983H14.128L14.9999 -146.451L35.3845 -140.166C35.3845 -140.166 35.401 -140.084 35.4339 -139.919L40.1228 -140.314L40.4354 -149.149L24.2791 -156.503L23.3578 -160.748L36.7665 -165.322L37.3588 -178.155L23.3413 -186.694L22.42 -208.329L3.20349 -198.885H-3.80521L-1.96255 -215.354L-28.1219 -221.523L-38.9476 -213.347V-188.405L-58.4109 -182.235L-66.2094 -165.98L-74.6659 -164.614V-185.41L-92.961 -187.944L-102.109 -193.9L-105.794 -207.374L-73.07 -226.525L-57.0618 -231.395L-55.4494 -220.635L-46.5322 -221.096L-45.8412 -226.508L-36.5127 -227.841L-36.3481 -229.733L-40.3625 -231.395L-41.2839 -237.12L-29.8166 -238.091L-22.89 -245.297L-22.5117 -245.824L-22.4294 -245.791L-20.3235 -247.962L3.77936 -251.006L14.4405 -241.957L-13.5122 -227.068L22.058 -218.677L26.6647 -230.572H42.2122L47.7074 -240.937L36.7171 -243.685V-256.797L2.24927 -272.065L-21.541 -269.318L-34.9662 -262.293L-34.0448 -245.215L-48.0787 -247.354L-50.234 -256.797L-36.7924 -269.005L-61.1913 -270.223L-68.2001 -268.1L-71.2438 -259.874L-62.0963 -258.328L-63.9225 -249.18L-79.47 -248.259L-81.905 -242.171L-104.461 -241.546C-104.461 -241.546 -105.086 -254.346 -105.991 -254.346C-106.896 -254.346 -88.305 -254.659 -88.305 -254.659L-74.8633 -267.788L-82.2011 -271.457L-91.9574 -261.98L-108.147 -262.901L-117.903 -276.326H-138.649L-160.301 -260.154H-140.459L-138.649 -254.346L-143.799 -249.558L-121.835 -248.95L-118.479 -241.02L-143.207 -241.941L-144.408 -248.045L-159.955 -251.401L-168.198 -255.975L-186.707 -255.827C-126.113 -299.969 -51.5996 -326.095 28.9352 -326.095C121.76 -326.095 206.572 -291.397 271.28 -234.389L266.92 -226.591L249.99 -219.96L242.85 -212.211L244.495 -203.179L253.231 -201.961L258.496 -188.799L273.566 -194.87L276.051 -177.266H271.51L259.138 -179.093L245.416 -176.789L232.139 -158.033L213.153 -155.056L210.406 -138.801L218.418 -136.908L216.098 -126.461L197.244 -130.245L179.952 -126.461L176.283 -116.837L179.278 -96.6329L189.429 -91.8781L206.457 -91.9769L217.957 -93.0134L221.462 -102.161L239.428 -125.507L251.257 -123.088L262.905 -133.618L265.077 -125.392L293.737 -106.06L290.233 -101.355L277.318 -102.046L282.286 -95.0041L290.233 -93.2601L299.545 -97.1429L299.347 -108.363L303.477 -110.437L300.154 -113.957L281.036 -124.618L276.001 -138.784H291.894L296.978 -133.75L310.667 -121.953L311.243 -107.689L325.425 -92.5856L330.706 -113.283L340.528 -118.646L342.371 -101.717L351.962 -91.1871L371.097 -91.5162C374.798 -81.9902 378.122 -72.2997 381.034 -62.4118L379.043 -60.5692ZM-152.881 -177.266L-143.273 -181.84L-134.586 -179.767L-137.58 -168.102L-146.958 -165.124L-152.881 -177.266ZM-101.895 -149.807V-142.256H-123.842L-132.068 -144.542L-130.012 -149.807L-119.466 -154.167H-105.054V-149.807H-101.895ZM-91.7929 -139.278V-131.956L-97.288 -128.419L-104.132 -127.152C-104.132 -127.152 -104.132 -138.126 -104.132 -139.278H-91.7929ZM-97.979 -142.256V-150.959L-90.4273 -144.082L-97.979 -142.256ZM-94.5405 -124.651V-117.528L-99.7888 -112.263H-111.454L-109.627 -120.259L-104.116 -120.736L-102.981 -123.483L-94.5405 -124.651ZM-123.595 -139.278H-111.47L-127.018 -117.544L-133.434 -120.983L-132.052 -130.13L-123.595 -139.278ZM-73.942 -127.152V-120.045H-85.6068L-88.7986 -124.651V-131.265H-87.8772L-73.942 -127.152ZM-84.7184 -136.925L-81.3949 -140.413L-75.7847 -136.925L-80.2762 -133.223L-84.7184 -136.925ZM384.999 -42.0437L386.151 -43.3928C386.628 -41.3198 387.138 -39.2468 387.598 -37.1409L384.999 -42.0437Z" fill="#A52422"/>
</g>
</g>
<defs>
<clipPath id="clip0_1198_2665">
<rect width="53.0305" height="58" fill="white" transform="translate(0.915039)"/>
</clipPath>
<clipPath id="clip1_1198_2665">
<rect width="800" height="800" fill="white" transform="translate(-371.057 -359)"/>
</clipPath>
</defs>
</svg>
