<svg width="36" height="36" viewBox="0 0 36 36" fill="none" xmlns="http://www.w3.org/2000/svg">
<path fill-rule="evenodd" clip-rule="evenodd" d="M18 36C27.9411 36 36 27.9411 36 18C36 8.05887 27.9411 0 18 0C8.05887 0 0 8.05887 0 18C0 27.9411 8.05887 36 18 36ZM10 17C10 13.134 13.134 10 17 10C20.866 10 24 13.134 24 17C24 18.8863 23.2539 20.5984 22.0406 21.8572C22.0068 21.8833 21.9743 21.9118 21.9433 21.9428C21.9123 21.9738 21.8837 22.0064 21.8576 22.0402C20.5988 23.2537 18.8866 24 17 24C13.134 24 10 20.866 10 17ZM26 17C26 19.1249 25.2636 21.0778 24.0321 22.6174L27.7075 26.2928C28.098 26.6833 28.098 27.3165 27.7075 27.707C27.317 28.0975 26.6838 28.0975 26.2933 27.707L22.618 24.0317C21.0782 25.2634 19.1251 26 17 26C12.0294 26 8 21.9706 8 17C8 12.0294 12.0294 8 17 8C21.9706 8 26 12.0294 26 17Z" fill="#C4A66C"/>
</svg>
