<svg width="18" height="19" viewBox="0 0 18 19" fill="none" xmlns="http://www.w3.org/2000/svg">
<path d="M16.23 12.6211L13.69 12.3311C13.3914 12.296 13.0886 12.3291 12.8046 12.4278C12.5206 12.5265 12.2626 12.6883 12.05 12.9011L10.21 14.7411C7.37123 13.2973 5.06382 10.9899 3.62004 8.15109L5.47004 6.30109C5.90004 5.87109 6.11004 5.2711 6.04004 4.6611L5.75004 2.1411C5.69335 1.65327 5.45923 1.20333 5.09228 0.876942C4.72532 0.550554 4.25115 0.370511 3.76004 0.371095H2.03004C0.900041 0.371095 -0.0399593 1.3111 0.0300407 2.4411C0.560041 10.9811 7.39004 17.8011 15.92 18.3311C17.05 18.4011 17.99 17.4611 17.99 16.3311V14.6011C18 13.5911 17.24 12.7411 16.23 12.6211Z" fill="white"/>
</svg>
