<svg width="59" height="58" viewBox="0 0 59 58" fill="none" xmlns="http://www.w3.org/2000/svg">
<g clip-path="url(#clip0_1198_2682)">
<path d="M43.1944 12.9002L43.2505 13.3308L42.6052 13.4644L42.5193 14.3816H43.2922L44.3204 14.2826L44.8512 13.6516L44.287 13.4322L43.9781 13.0767L43.5141 12.3252L43.2922 11.2625L42.4203 11.4402L42.1758 11.8147V12.237L42.5956 12.5244L43.1944 12.9002Z" fill="#A52422"/>
<path d="M42.4509 13.2531L42.4974 12.6782L41.9857 12.4575L41.2701 12.6233L40.7393 13.475V14.0272H41.3583L42.4509 13.2531Z" fill="#A52422"/>
<path d="M27.7195 15.6949L27.562 16.1005H26.7998V16.4941H26.9811C26.9811 16.4941 26.9918 16.5776 27.0074 16.6873L27.4749 16.648L27.7672 16.4667L27.8435 16.1005L28.2216 16.0683L28.3707 15.7605L28.0236 15.689L27.7195 15.6949Z" fill="#A52422"/>
<path d="M25.7554 16.4093L25.7256 16.7946L26.2779 16.748L26.3351 16.3616L26.0035 16.1003L25.7554 16.4093Z" fill="#A52422"/>
<path d="M58.9235 28.7C58.9152 27.8519 58.8722 27.0098 58.7923 26.1808C58.5239 23.4171 57.8631 20.7679 56.8731 18.2845C56.7991 18.0996 56.7311 17.9123 56.6524 17.7298C55.3332 14.613 53.4808 11.7753 51.2132 9.32652C51.0641 9.16668 50.9127 9.00923 50.7612 8.85417C50.3329 8.40925 49.8928 7.97507 49.4372 7.55879C44.2819 2.86511 37.4352 0 29.9301 0C22.3617 0 15.4662 2.9164 10.2965 7.68165C9.09182 8.79214 7.9849 10.004 6.98056 11.3018C3.19222 16.2018 0.930664 22.34 0.930664 28.9994C0.930664 44.9913 13.9406 58 29.9313 58C41.1794 58 50.9449 51.5589 55.7518 42.1739C56.78 40.1676 57.5804 38.0289 58.1196 35.7876C58.2567 35.2187 58.3748 34.6473 58.4774 34.0688C58.7696 32.4216 58.9295 30.7278 58.9295 28.9994C58.9307 28.8992 58.9247 28.8002 58.9235 28.7ZM53.4652 17.1096L53.6334 16.9211C53.8541 17.3493 54.0605 17.7847 54.2573 18.226L53.9829 18.2153L53.4652 18.2868V17.1096ZM49.2749 12.0497L49.2797 10.7543C49.7354 11.2374 50.1743 11.7348 50.5942 12.2501L50.0717 13.0278L48.2455 13.0111L48.131 12.6306L49.2749 12.0497ZM14.2924 8.83031V8.78141H14.8733L14.9234 8.58221H15.8741V8.99731L15.6009 9.3623H14.2912L14.2924 8.83031ZM15.2204 10.1245C15.2204 10.1245 15.8013 10.0255 15.8514 10.0255C15.9015 10.0255 15.8514 10.6052 15.8514 10.6052L14.5417 10.6875L14.2924 10.3893L15.2204 10.1245ZM55.3129 21.6362H53.1909L51.8979 20.6736L50.5369 20.806V21.6362H50.1063L49.6411 21.3046L47.2841 20.707V19.1803L44.2974 19.4129L43.3718 19.9103H42.1861L41.6052 19.8518L40.1655 20.651V22.1551L37.2229 24.2783L37.4674 25.1848H38.0638L37.9075 26.0484L37.4877 26.2023L37.465 28.4591L40.0081 31.3552H41.115L41.1818 31.1787H43.1714L43.7451 30.6479H44.8735L45.4926 31.2681L47.1744 31.4423L46.9514 33.6788L48.8181 36.9745L47.8352 38.8531L47.902 39.7382L48.6761 40.5099V42.6379L49.6924 44.0049V45.7726H50.5703C45.6846 51.7712 38.2487 55.6132 29.9289 55.6132C15.255 55.6144 3.31627 43.6744 3.31627 28.9994C3.31627 25.3053 4.07489 21.7841 5.44065 18.5839V17.7537L6.3925 16.5978C6.72291 15.974 7.07717 15.3657 7.45529 14.7729L7.49823 15.2559L6.3925 16.5978C6.05017 17.2443 5.73169 17.9052 5.44184 18.5839V20.0987L6.54757 20.6307V22.736L7.60797 24.5455L8.47037 24.6779L8.5813 24.0576L7.56384 22.4879L7.36464 20.9623H7.96104L8.21272 22.532L9.68344 24.6779L9.30413 25.3709L10.2393 26.8011L12.5617 27.376V27.0003L13.4909 27.1327L13.4026 27.7959L14.1326 27.9295L15.2598 28.2372L16.8522 30.0515L18.8859 30.2053L19.0851 31.8645L17.6931 32.8378L17.6275 34.3193L17.4283 35.2258L19.4418 37.7462L19.5956 38.6098C19.5956 38.6098 20.3256 38.8078 20.4151 38.8078C20.5034 38.8078 22.0516 39.9803 22.0516 39.9803V44.5357L22.6039 44.6907L22.2281 46.7924L23.1573 48.0318L22.9856 50.1144L24.213 52.2722L25.7887 53.6487L27.3727 53.6773L27.5278 53.168L26.3636 52.1875L26.4304 51.7008L26.6391 51.1044L26.6833 50.4961L25.896 50.4722L25.4988 49.9736L26.1525 49.345L26.2407 48.8703L25.5107 48.6616L25.5537 48.2202L26.5938 48.0628L28.1755 47.303L28.7063 46.3296L30.3654 44.2064L29.9885 42.5461L30.4978 41.6622L32.0234 41.7087L33.0504 40.8952L33.382 37.6914L34.5212 36.2445L34.7204 35.3153L33.6814 34.9825L32.9956 33.8577L30.6517 33.8338L28.7933 33.1253L28.7051 31.8001L28.0848 30.7158L26.4041 30.6908L25.4332 29.1664L24.5708 28.7453L24.5267 29.2105L22.9569 29.3036L22.382 28.5032L20.7443 28.1704L19.3952 29.7294L17.2721 29.3692L17.1182 26.9764L15.5687 26.7116L16.1902 25.5379L16.0125 24.864L13.9763 26.2249L12.6953 26.0687L12.2384 25.0679L12.5175 24.0362L13.2237 22.7348L14.8495 21.9118L17.9889 21.9106L17.9806 22.8684L19.109 23.3932L19.0195 21.7567L19.833 20.9384L21.4743 19.8602L21.5864 19.1015L23.2229 17.3982L24.9632 16.4344L24.8094 16.308L25.9879 15.1987L26.4197 15.3132L26.6177 15.5613L27.065 15.0651L27.1747 15.0162L26.6845 14.947L26.1871 14.7812V14.3041L26.4507 14.0882H27.0316L27.2976 14.2051L27.5278 14.6703L27.8093 14.6273V14.5868L27.8904 14.6142L28.7063 14.489L28.822 14.0906L29.2871 14.2075V14.6393L28.8554 14.9363H28.8565L28.9198 15.4098L30.3976 15.8655C30.3976 15.8655 30.3988 15.8714 30.4012 15.8834L30.7412 15.8547L30.7638 15.2142L29.5925 14.681L29.5257 14.3733L30.4978 14.0417L30.5408 13.1113L29.5245 12.4922L29.4577 10.9237L28.0645 11.6083H27.5564L27.69 10.4144L25.7934 9.96705L25.0086 10.5599V12.3682L23.5975 12.8155L23.0321 13.994L22.419 14.093V12.5853L21.0926 12.4016L20.4294 11.9698L20.1622 10.9929L22.5347 9.60444L23.6953 9.25137L23.8122 10.0315L24.4587 9.99807L24.5088 9.60564L25.1851 9.50902L25.197 9.37185L24.906 9.25137L24.8392 8.83628L25.6706 8.7659L26.1727 8.24345L26.2002 8.20529L26.2061 8.20767L26.3588 8.05022L28.1063 7.82955L28.8792 8.48559L26.8526 9.56508L29.4315 10.1734L29.7655 9.31101H30.8927L31.2911 8.55955L30.4943 8.36035V7.40969L27.9953 6.30277L26.2705 6.50196L25.2972 7.01129L25.364 8.24942L24.3466 8.09435L24.1903 7.40969L25.1648 6.52463L23.3959 6.43636L22.8878 6.59023L22.6671 7.18663L23.3303 7.29876L23.1979 7.96195L22.0707 8.02875L21.8942 8.47009L20.2588 8.51541C20.2588 8.51541 20.2135 7.58741 20.1479 7.58741C20.0823 7.58741 21.4302 7.56475 21.4302 7.56475L22.4047 6.6129L21.8727 6.3469L21.1654 7.03395L19.9916 6.96716L19.2843 5.99383H17.7802L16.2105 7.16635H17.649L17.7802 7.58741L17.4068 7.93452L18.9992 7.97865L19.2426 8.55358L17.4498 8.48679L17.3627 8.04426L16.2355 7.80093L15.6379 7.46933L14.296 7.48006C18.6891 4.27977 24.0913 2.3856 29.9301 2.3856C36.6599 2.3856 42.8088 4.90122 47.5 9.03428L47.184 9.59967L45.9566 10.0804L45.4389 10.6422L45.5582 11.297L46.1915 11.3853L46.5732 12.3395L47.6658 11.8994L47.846 13.1757H47.5167L46.6198 13.0433L45.625 13.2103L44.6624 14.5701L43.2859 14.786L43.0867 15.9645L43.6676 16.1016L43.4994 16.8591L42.1324 16.5847L40.8788 16.8591L40.6128 17.5569L40.8299 19.0216L41.5659 19.3663L42.8004 19.3592L43.6342 19.284L43.8882 18.6208L45.1908 16.9282L46.0484 17.1036L46.8929 16.3402L47.0504 16.9366L49.1282 18.3381L48.8741 18.6793L47.9378 18.6292L48.298 19.1397L48.8741 19.2661L49.5493 18.9846L49.535 18.1711L49.8344 18.0209L49.5934 17.7656L48.2074 16.9927L47.8424 15.9657H48.9946L49.3632 16.3307L50.3556 17.1859L50.3974 18.2201L51.4256 19.315L51.8084 17.8145L52.5205 17.4256L52.6541 18.653L53.3495 19.4164L54.7368 19.3926C55.0052 20.0832 55.2461 20.7858 55.4572 21.5026L55.3129 21.6362ZM16.7484 13.1757L17.445 12.8441L18.0748 12.9944L17.8577 13.8401L17.1778 14.056L16.7484 13.1757ZM20.4449 15.1665V15.714H18.8537L18.2573 15.5482L18.4064 15.1665L19.171 14.8504H20.2159V15.1665H20.4449ZM21.1773 15.9299V16.4607L20.7789 16.7171L20.2827 16.809C20.2827 16.809 20.2827 16.0134 20.2827 15.9299H21.1773ZM20.7288 15.714V15.083L21.2763 15.5816L20.7288 15.714ZM20.9781 16.9903V17.5068L20.5976 17.8885H19.7519L19.8843 17.3088L20.2839 17.2742L20.3662 17.075L20.9781 16.9903ZM18.8716 15.9299H19.7507L18.6235 17.5056L18.1583 17.2563L18.2585 16.5931L18.8716 15.9299ZM22.4715 16.809V17.3243H21.6258L21.3944 16.9903V16.5108H21.4612L22.4715 16.809ZM21.6902 16.1004L21.9311 15.8476L22.3379 16.1004L22.0122 16.3688L21.6902 16.1004ZM55.7447 22.9793L55.8282 22.8815C55.8628 23.0318 55.8998 23.1821 55.9332 23.3348L55.7447 22.9793Z" fill="#A52422"/>
<path d="M5.44141 17.7537V18.5839C5.73126 17.9064 6.05093 17.2456 6.39326 16.5979L5.44141 17.7537Z" fill="#A52422"/>
</g>
<defs>
<clipPath id="clip0_1198_2682">
<rect width="58" height="58" fill="white" transform="translate(0.930664)"/>
</clipPath>
</defs>
</svg>
