<svg width="34" height="34" viewBox="0 0 34 34" fill="none" xmlns="http://www.w3.org/2000/svg">
<path d="M17.5759 10.7219C17.2578 10.4037 16.742 10.4037 16.4239 10.7219L10.7218 16.4239C10.4037 16.7421 10.4037 17.2578 10.7218 17.5759L16.4239 23.278C16.742 23.5961 17.2578 23.5961 17.5759 23.278C17.894 22.9599 17.894 22.4441 17.5759 22.126L13.2644 17.8146H22.703C23.1529 17.8146 23.5176 17.4499 23.5176 17C23.5176 16.5501 23.1529 16.1854 22.703 16.1854H13.2643L17.5759 11.8739C17.894 11.5557 17.894 11.04 17.5759 10.7219Z" fill="#A5660D"/>
<path fill-rule="evenodd" clip-rule="evenodd" d="M0 17C0 26.3888 7.61116 34 17 34C26.3888 34 34 26.3888 34 17C34 7.61116 26.3888 0 17 0C7.61116 0 0 7.61116 0 17ZM1.7 17C1.7 25.45 8.55004 32.3 17 32.3C25.45 32.3 32.3 25.45 32.3 17C32.3 8.55004 25.45 1.7 17 1.7C8.55004 1.7 1.7 8.55004 1.7 17Z" fill="#A5660D"/>
</svg>
