<svg width="34" height="34" viewBox="0 0 34 34" fill="none" xmlns="http://www.w3.org/2000/svg">
<path d="M17.5759 10.7218C17.2578 10.4037 16.742 10.4037 16.4239 10.7218L10.7218 16.4239C10.4037 16.742 10.4037 17.2578 10.7218 17.5759L16.4239 23.278C16.742 23.5961 17.2578 23.5961 17.5759 23.278C17.894 22.9598 17.894 22.4441 17.5759 22.126L13.2644 17.8145H22.703C23.1529 17.8145 23.5176 17.4498 23.5176 16.9999C23.5176 16.5501 23.1529 16.1854 22.703 16.1854H13.2643L17.5759 11.8738C17.894 11.5557 17.894 11.0399 17.5759 10.7218Z" fill="#301A6F"/>
<path fill-rule="evenodd" clip-rule="evenodd" d="M0 16.9999C0 26.3888 7.61116 33.9999 17 33.9999C26.3888 33.9999 34 26.3888 34 16.9999C34 7.6111 26.3888 -6.10352e-05 17 -6.10352e-05C7.61116 -6.10352e-05 0 7.6111 0 16.9999ZM1.7 16.9999C1.7 25.4499 8.55004 32.2999 17 32.2999C25.45 32.2999 32.3 25.4499 32.3 16.9999C32.3 8.54998 25.45 1.69994 17 1.69994C8.55004 1.69994 1.7 8.54998 1.7 16.9999Z" fill="#301A6F"/>
</svg>
