<svg width="16" height="22" viewBox="0 0 16 22" fill="none" xmlns="http://www.w3.org/2000/svg">
<path d="M8 0.861328C3.86469 0.861328 0.5 4.0793 0.5 8.0332C0.5 9.91617 1.35828 12.4202 3.05094 15.476C4.41031 17.9295 5.98297 20.148 6.80094 21.252C6.93916 21.4406 7.11987 21.594 7.32844 21.6997C7.53701 21.8054 7.76757 21.8605 8.00141 21.8605C8.23525 21.8605 8.4658 21.8054 8.67437 21.6997C8.88294 21.594 9.06366 21.4406 9.20188 21.252C10.0184 20.148 11.5925 17.9295 12.9519 15.476C14.6417 12.4212 15.5 9.91711 15.5 8.0332C15.5 4.0793 12.1353 0.861328 8 0.861328ZM8 11.3613C7.40666 11.3613 6.82664 11.1854 6.33329 10.8557C5.83994 10.5261 5.45542 10.0576 5.22836 9.50938C5.0013 8.9612 4.94189 8.358 5.05764 7.77606C5.1734 7.19411 5.45912 6.65956 5.87868 6.24001C6.29824 5.82045 6.83279 5.53473 7.41473 5.41897C7.99667 5.30322 8.59987 5.36263 9.14805 5.58969C9.69623 5.81675 10.1648 6.20127 10.4944 6.69462C10.8241 7.18797 11 7.76798 11 8.36133C10.9991 9.15671 10.6828 9.91927 10.1204 10.4817C9.55794 11.0441 8.79538 11.3605 8 11.3613Z" fill="white"/>
</svg>
