<svg width="20" height="17" viewBox="0 0 20 17" fill="none" xmlns="http://www.w3.org/2000/svg">
<path d="M2 16.3613C1.45 16.3613 0.979001 16.1653 0.587001 15.7733C0.195001 15.3813 -0.000664969 14.9107 1.69779e-06 14.3613V2.36133C1.69779e-06 1.81133 0.196002 1.34033 0.588001 0.94833C0.980001 0.55633 1.45067 0.360663 2 0.36133H18C18.55 0.36133 19.021 0.55733 19.413 0.94933C19.805 1.34133 20.0007 1.812 20 2.36133V14.3613C20 14.9113 19.804 15.3823 19.412 15.7743C19.02 16.1663 18.5493 16.362 18 16.3613H2ZM10 9.36134L18 4.36133V2.36133L10 7.36133L2 2.36133V4.36133L10 9.36134Z" fill="white"/>
</svg>
