<svg width="72" height="58" viewBox="0 0 72 58" fill="none" xmlns="http://www.w3.org/2000/svg">
<path d="M26.4408 55.6522C26.3782 55.5039 26.3392 55.4051 26.2941 55.3071C26.2698 55.2552 26.2391 55.1879 26.1642 55.2397C26.1012 55.2815 26.1212 55.3417 26.1562 55.3959C26.216 55.488 26.283 55.5737 26.4408 55.6522ZM24.1683 56.097C23.9917 56.3214 24.0033 56.5222 23.9961 56.7191C24.0559 56.5366 24.1751 56.3692 24.1683 56.097ZM28.9513 55.5294C28.807 55.6255 28.8584 55.757 28.8692 55.8786C28.8991 56.2225 28.7871 56.3325 28.4439 56.2815C28.1745 56.2416 27.9063 56.1906 27.6365 56.1552C27.5603 56.146 27.4444 56.1041 27.4109 56.2062C27.385 56.2855 27.497 56.3182 27.5452 56.3736C27.5986 56.4345 27.7664 56.4417 27.6958 56.5561C27.6117 56.6928 27.4703 56.6458 27.3607 56.5601C27.1622 56.4031 27.0287 56.1906 26.933 55.9635C26.8469 55.759 26.7425 55.6315 26.4974 55.7223C26.5719 55.8072 26.7027 55.8889 26.723 55.993C26.764 56.203 26.8011 56.4226 26.8067 56.6334C26.8111 56.8008 26.6257 56.8845 26.4587 56.9204C26.3089 56.9531 26.2403 56.863 26.2112 56.7255C26.1853 56.747 26.171 56.7542 26.165 56.7653C26.114 56.855 26.2886 57.016 26.1156 57.0447C25.9482 57.0722 25.9522 56.8805 25.9155 56.7701C25.8418 56.5477 25.8625 56.3174 25.8872 56.0866C25.9016 55.9531 25.9151 55.8112 25.888 55.6817C25.8693 55.594 25.9083 55.3605 25.668 55.4992C25.6517 55.5091 25.5863 55.4326 25.5202 55.3764C25.4903 55.5621 25.5803 55.6897 25.6286 55.8276C25.6493 55.8865 25.7051 55.9611 25.6102 56.0001C25.5433 56.0276 25.4795 55.9989 25.4337 55.9348C25.3707 55.8471 25.3356 55.7359 25.2141 55.6665C25.1949 55.8634 25.4687 55.9754 25.3037 56.1938C25.5903 56.091 25.6525 56.1233 25.6333 56.3815C25.6154 56.6195 25.6445 56.8184 25.788 57.0232C25.9574 57.2663 25.8434 57.4305 25.5481 57.4253C25.2161 57.4194 25.0606 57.305 24.9387 56.9826C24.9271 56.9519 24.9056 56.9224 24.8825 56.8989C24.6653 56.6805 24.6601 56.4314 24.7828 56.1703C24.8358 56.0571 24.8331 55.9786 24.7402 55.8774C24.4867 55.602 24.2667 55.3063 24.456 54.8969C24.4708 54.8643 24.4676 54.8105 24.4349 54.8196C24.3133 54.8551 24.2647 54.6889 24.1627 54.7236C24.0922 54.7483 24.1308 54.8288 24.1452 54.8818C24.246 55.2552 24.4114 55.5992 24.6123 55.9276C24.6529 55.9938 24.7326 56.0499 24.6457 56.1468C24.5234 56.2847 24.5521 56.4529 24.5979 56.6091C24.6744 56.8694 24.7565 57.1284 24.8562 57.3803C24.9172 57.5345 24.8629 57.6047 24.7294 57.6517C24.5054 57.7314 24.1846 57.6294 24.0933 57.4018C24.0045 57.1806 23.8443 56.9766 23.8662 56.7151C23.8706 56.6633 23.8865 56.5732 23.8052 56.5724C23.7207 56.5713 23.7091 56.6589 23.7107 56.7263C23.7159 56.9355 23.8255 57.1161 23.8869 57.3102C23.9802 57.6059 23.8845 57.7203 23.5872 57.6804C23.4624 57.6629 23.4043 57.5927 23.3959 57.4795C23.3831 57.3102 23.3839 57.1396 23.3748 56.9702C23.3676 56.8367 23.3628 56.6988 23.1336 56.6406C23.2556 56.8367 23.3253 57.0009 23.3118 57.1906C23.2799 57.6366 22.9328 57.8622 22.5274 57.6804C22.3971 57.6214 22.2991 57.6437 22.1963 57.7151C21.9898 57.859 21.7582 57.8924 21.5143 57.8773C21.2892 57.8629 21.2421 57.7804 21.3637 57.5856C21.435 57.4704 21.5315 57.3711 21.6108 57.2611C21.6506 57.2049 21.7575 57.1456 21.6897 57.0762C21.6219 57.0061 21.5534 57.0957 21.504 57.1499C21.4757 57.1806 21.4617 57.2233 21.4079 57.3241C21.3497 57.0774 21.3127 56.9204 21.27 56.7374C21.1871 56.8275 21.2302 56.8989 21.213 56.957C21.1178 57.2743 21.1409 57.6143 21.0245 57.9231C20.9926 58.0088 20.8583 57.9925 20.7659 57.9957C20.3251 58.0108 20.3271 58.01 20.345 57.5752C20.3506 57.4429 20.3829 57.2978 20.2489 57.1998C20.2051 57.1683 20.1481 57.1551 20.1114 57.2037C20.0138 57.3325 20.0808 57.462 20.113 57.5935C20.1326 57.6712 20.2047 57.7537 20.1306 57.8315C20.0736 57.8916 20.0014 57.8438 19.9385 57.8263C19.8424 57.8008 19.7723 57.7577 19.7779 57.6346C19.7826 57.5262 19.7842 57.413 19.7264 57.307C19.6184 57.3273 19.5862 57.3763 19.6097 57.4927C19.6431 57.6557 19.5527 57.6896 19.414 57.6314C19.2777 57.5744 19.1234 57.4967 19.0772 57.3711C18.9935 57.1479 18.7914 57.1161 18.6344 57.0061C18.1733 56.6805 17.7154 56.3234 17.426 55.8439C16.9338 55.0265 16.4687 54.1859 16.2603 53.237C16.2551 53.2115 16.2499 53.186 16.2499 53.1605C16.2487 53.0708 16.1985 52.9556 16.2906 52.9002C16.391 52.84 16.454 52.9544 16.5277 53.0042C16.5484 53.0178 16.5679 53.0329 16.6054 53.0616C16.6437 52.9668 16.5165 52.8026 16.717 52.785C16.7449 52.783 16.705 52.7117 16.6732 52.687C16.6241 52.6495 16.5791 52.5686 16.5046 52.6495C16.4281 52.7332 16.33 52.7472 16.2248 52.7432C16.0841 52.7392 16.0016 52.689 16.016 52.5268C16.0359 52.2944 15.9845 52.07 15.9064 51.8516C15.8402 51.6659 15.902 51.5443 16.1008 51.528C16.2674 51.5149 16.4432 51.4116 16.6022 51.5782C16.66 51.6384 16.7282 51.5567 16.7776 51.518C16.892 51.4272 17.0147 51.3546 17.1542 51.3188C17.1658 51.2331 17.1016 51.1904 17.0669 51.1354C16.9565 50.9577 16.9908 50.8353 17.1909 50.7568C17.3073 50.7118 17.436 50.6823 17.5528 50.5272C17.3798 50.5946 17.2499 50.6372 17.11 50.6436C16.9119 50.6528 16.8832 50.827 16.8358 50.968C16.7708 51.1609 16.7266 51.3658 16.4735 51.1291C16.4161 51.0753 16.3432 51.0892 16.3607 51.1761C16.3894 51.3188 16.3165 51.3076 16.2224 51.3004C15.7445 51.2678 15.3544 51.0729 15.0674 50.6855C14.9068 50.4679 14.9522 50.322 15.2145 50.2526C15.4823 50.1833 15.7557 50.1825 16.0195 50.275C16.1224 50.3108 16.1877 50.3128 16.2575 50.214C16.509 49.8589 16.5121 49.8609 16.817 50.1375C16.8095 49.9661 16.7046 49.8262 16.5576 49.7744C16.377 49.709 16.3428 49.8609 16.2738 49.9589C16.2009 50.0629 16.1144 50.1315 15.9789 50.1263C15.8055 50.1199 15.7294 50.0394 15.7577 49.8649C15.7792 49.7325 15.8617 49.6118 15.827 49.4304C15.7342 49.6026 15.6875 49.764 15.5744 49.8884C15.3296 50.1558 14.9494 50.2016 14.6768 49.9904C14.401 49.7764 14.2619 49.2415 14.421 48.9956C14.4421 48.9621 14.4999 48.9119 14.5102 48.9191C14.733 49.057 14.7522 48.8673 14.8406 48.7417C14.9291 48.6162 15.1017 48.5915 15.2444 48.5365C15.3424 48.499 15.4687 48.4927 15.4783 48.3436C15.3954 48.2826 15.3285 48.3416 15.2671 48.3763C14.9427 48.56 14.5951 48.7071 14.3213 48.9733C14.2061 49.0845 14.0961 49.0925 14.0216 48.9255C13.0691 46.7948 11.2716 45.8419 9.1075 45.4031C7.88076 45.1552 6.63809 45.1432 5.39302 45.1656C5.21168 45.1688 5.02476 45.1911 4.77766 45.0878C5.50182 44.6666 6.2495 44.4362 6.97207 44.0994C6.81704 43.9432 6.64965 43.9759 6.49062 44.0098C6.2216 44.0668 5.98128 44.1995 5.73577 44.3179C5.56719 44.3984 5.3986 44.4809 5.20969 44.5076C4.92871 44.5474 4.77965 44.437 4.7386 44.1433C4.51302 44.2923 4.29741 44.4063 4.27868 44.7399C4.25955 45.0839 3.98494 45.2616 3.67009 45.3493C3.29665 45.4533 2.91285 45.4501 2.52865 45.437C1.87463 45.4147 1.2218 45.3154 0.565791 45.4031C0.0831477 45.4677 0.0759738 45.4625 0.156879 44.9727C0.212278 44.6359 0.343002 44.3186 0.433473 43.9902C0.517168 43.6873 0.53032 43.4135 0.394016 43.0851C0.233799 42.6985 0.197133 42.2426 0.303147 41.8058C0.30514 41.7974 0.306335 41.7883 0.311118 41.7823C0.468943 41.5703 0.633544 41.361 0.374089 41.1079C0.357748 41.0924 0.362132 41.0366 0.376879 41.0099C0.618001 40.5966 0.408364 40.1793 0.392422 39.764C0.387241 39.6285 0.375284 39.4918 0.380864 39.3571C0.383654 39.2838 0.396407 39.1805 0.483291 39.1674C0.812891 39.1152 0.701696 38.8757 0.60724 38.7621C0.262893 38.346 0.202314 37.8785 0.254524 37.3695C0.282024 37.1001 0.295575 36.8399 0.104669 36.5952C-0.0340258 36.4166 -0.00732293 36.1727 0.0297421 35.9503C0.103474 35.5063 0.178002 35.0627 0.253328 34.6188C0.297169 34.3609 0.254524 34.1098 0.192749 33.8607C0.100684 33.4905 0.117024 33.1334 0.323473 32.8018C0.383255 32.7057 0.381263 32.6129 0.366516 32.5088C0.25014 31.6886 0.32427 30.8764 0.502422 30.0733C0.55503 29.839 0.468146 29.5512 0.605247 29.3826C0.741153 29.2164 1.05362 29.3858 1.26923 29.2288C1.37963 29.1491 1.551 29.2104 1.69448 29.2328C2.12332 29.3013 2.2951 29.2184 2.5143 28.8422C2.63187 28.6389 2.70241 28.4205 2.71397 28.1882C2.72712 27.9247 2.73151 27.6605 2.73031 27.3962C2.72832 27.0658 2.75542 26.7618 3.05553 26.5302C3.21136 26.4106 3.32734 26.2229 3.34368 26.0045C3.35564 25.8415 3.48835 25.8272 3.59955 25.8044C3.80002 25.7638 3.89846 25.7076 3.84904 25.4537C3.75498 24.9679 3.92596 24.7232 4.39266 24.5578C4.58516 24.4896 4.78204 24.4342 4.97215 24.3589C5.37269 24.2007 5.57237 23.8978 5.57197 23.4693C5.57197 23.3027 5.58751 23.1601 5.71584 23.0293C5.87447 22.8671 5.83979 22.6695 5.73976 22.4837C5.6465 22.3112 5.53291 22.1489 5.4532 21.9716C5.29338 21.6145 5.51816 21.1051 5.88084 20.9696C5.99602 20.9258 6.07374 21.0135 6.16461 21.047C6.50298 21.1713 6.59066 21.1287 6.65682 20.7787C6.69149 20.595 6.72457 20.4176 6.83497 20.2542C6.9932 20.0195 6.96848 19.7664 6.82262 19.5309C6.68352 19.3073 6.53088 19.0921 6.3866 18.8709C6.29932 18.737 6.2786 18.6023 6.32802 18.4373C6.4687 17.9646 6.39099 17.5118 6.14986 17.0834C6.02392 16.8598 5.87088 16.6557 5.71186 16.4557C5.5632 16.2691 5.41056 16.0862 5.26588 15.8965C4.58596 15.003 4.62661 14.2234 5.40179 13.404C5.49345 13.3071 5.617 13.2398 5.727 13.1613C5.89639 13.0389 5.93903 12.8898 5.79356 12.7296C5.50979 12.4164 5.47432 12.092 5.63574 11.6962C5.83939 11.1972 5.80034 10.6604 5.75729 10.1319C5.73976 9.91986 5.71704 9.70743 5.69831 9.4962C5.62458 8.66881 5.89758 7.98331 6.61378 7.55049C7.8162 6.82433 8.34388 5.72433 8.48775 4.38481C8.5041 4.23256 8.52721 4.08072 8.55272 3.92967C8.82373 2.32391 10.0612 1.14739 11.777 0.852466C12.6932 0.694242 13.6115 0.79109 14.5298 0.810618C14.7254 0.814604 14.9219 0.822973 15.1168 0.812611C15.395 0.798263 15.6361 0.69743 15.7708 0.437178C15.8781 0.229135 16.0482 0.123918 16.2642 0.0677226C16.6425 -0.0279293 16.996 -0.0351031 17.3786 0.130295C18.5838 0.652394 19.8329 1.05333 21.1242 1.30562C21.8073 1.43833 22.3545 1.77192 22.81 2.28804C23.5991 3.18398 24.3102 4.1409 25.0283 5.09263C25.169 5.27836 25.3209 5.34691 25.5437 5.33973C26.063 5.3214 26.55 5.17832 27.0243 4.98064C27.7086 4.69368 28.3514 4.32343 29.019 4.003C29.6966 3.67659 30.3864 3.38604 31.1525 3.34818C32.0803 3.30115 32.8447 3.65307 33.4816 4.31108C33.5884 4.42147 33.6884 4.53785 33.7992 4.64267C33.9865 4.82122 34.1627 4.96828 34.4736 4.88379C34.7828 4.8001 35.061 4.9906 35.2109 5.24289C35.4962 5.72354 35.9554 5.88136 36.4396 6.02324C37.5316 6.34368 38.6312 6.59357 39.7842 6.44571C39.9297 6.42737 40.0859 6.48437 40.2362 6.51187C40.9444 6.64179 41.5546 6.5027 42.0042 5.89053C43.4234 3.95398 45.4484 3.22782 47.7349 3.05326C49.9719 2.88188 52.1456 3.28282 54.2962 3.84717C55.3013 4.1114 56.2921 4.42147 57.273 4.76343C57.5468 4.85908 57.8238 4.94597 58.1183 4.94477C58.3331 4.94477 58.4252 4.80089 58.5671 4.65224C58.8676 4.33778 58.8269 3.84517 59.196 3.5901C59.2426 3.55822 59.2781 3.46854 59.3363 3.50003C59.7284 3.71246 59.8727 3.34818 60.0812 3.17043C60.2681 3.01021 60.5156 2.89423 60.6168 2.66148C60.7272 2.40521 60.8926 2.3279 61.1596 2.32152C61.3621 2.31753 61.5187 2.13819 61.7064 2.05848C61.8164 2.01264 61.8997 1.96362 62.0456 2.06366C62.1959 2.16569 62.4083 2.07282 62.5665 1.95326C62.586 1.93891 62.5964 1.91261 62.6119 1.89228C63.3927 0.900292 64.3014 0.775148 65.3233 1.52163C65.8948 1.93891 66.3428 2.47257 66.7385 3.05206C67.8883 4.73792 68.432 6.62226 68.5495 8.64131C68.5842 9.23834 68.6201 9.28736 69.2199 9.29733C69.5766 9.3037 69.9345 9.28417 70.284 9.38501C70.4299 9.42805 70.498 9.50138 70.5945 9.63809C70.7798 9.90033 70.8934 10.3005 71.325 10.3176C71.4641 10.324 71.4306 10.4308 71.4179 10.5073C71.3888 10.6859 71.2947 10.8409 71.2178 11.0023C71.1305 11.1868 71.0959 11.3594 71.1827 11.5635C71.2959 11.8297 71.2146 12.1011 71.1222 12.3602C71.0309 12.6164 70.9269 12.8683 70.8304 13.1234C70.777 13.2641 70.8041 13.3673 70.9313 13.4765C71.3302 13.8161 71.3314 14.1529 70.95 14.5111C70.6869 14.7579 70.3741 14.9336 70.0632 15.111C69.5917 15.3812 69.0947 15.608 68.6818 15.9774C68.467 16.1679 68.2155 16.1332 67.9629 16.0189C67.491 15.8048 67.2554 15.8284 66.9705 16.2496C65.9171 17.8087 64.8454 19.3635 64.3767 21.2275C64.2823 21.6041 64.1635 21.9764 64.2237 22.3805C64.2611 22.6348 64.0894 22.7918 63.8618 22.8743C63.6541 22.95 63.4405 23.0102 63.2329 23.0867C62.9981 23.1732 62.8634 23.3163 62.9619 23.5925C63.0185 23.7507 62.9937 23.903 62.8949 24.0528C62.7765 24.2322 62.769 24.4171 62.9451 24.5825C63.0914 24.72 63.1261 24.8834 63.0272 25.0679C62.9427 25.2261 62.9842 25.4027 62.9678 25.5701C62.928 25.9802 62.7506 26.3078 62.3581 26.4361C61.771 26.6278 61.2987 27.0057 60.7878 27.3217C60.6873 27.3839 60.5702 27.4413 60.7798 27.531C60.9388 27.5983 60.9313 27.7677 60.9328 27.9076C60.9356 28.1156 60.8739 28.3165 60.7619 28.4891C60.6164 28.7123 60.5765 28.9562 60.5578 29.2144C60.5196 29.7429 60.4219 30.2614 60.2159 30.7528C59.8317 31.6711 59.1087 32.1119 58.1151 32.0425C58.0234 32.0354 57.931 32.0417 57.8238 32.0417C57.86 32.1641 57.9031 32.2741 57.925 32.3885C57.9951 32.7516 57.7357 33.0903 57.3742 33.1098C57.1383 33.1222 57.0291 33.2661 56.9768 33.4741C56.8868 33.8312 56.8784 34.1995 56.8342 34.5626C56.7058 35.6135 56.3436 36.5756 55.7549 37.4544C55.6987 37.5389 55.6306 37.6154 55.6397 37.7298C55.6772 38.2113 55.454 38.5827 55.1308 38.9083C54.963 39.0773 54.7888 39.2407 54.6214 39.4113C54.0937 39.947 54.0925 40.3172 54.6143 40.8561C54.845 41.0948 54.8442 41.0936 54.5453 41.2506C54.1679 41.4495 53.8036 41.6679 53.4784 41.9477C53.0858 42.2864 52.8798 42.6926 52.932 43.2282C52.9802 43.7208 52.8802 43.8667 52.4178 44.0747C52.3003 44.1277 52.2273 44.2015 52.1695 44.3127C51.7435 45.1349 51.3258 45.2696 50.3159 45.038C50.2099 45.0137 50.1641 44.9472 50.1338 44.8491C50.0521 44.5881 49.9775 44.3226 49.9815 44.0492C49.9907 43.4534 49.6981 43.0871 49.1497 42.9086C48.9728 42.8516 48.87 42.7719 48.8417 42.5658C48.8022 42.2813 48.6133 42.0752 48.3618 41.9393C48.1669 41.8345 47.9641 41.7456 47.7648 41.6488C47.5292 41.5344 47.3256 41.3865 47.2319 41.1275C47.2084 41.0621 47.1833 40.9856 47.1 40.9955C47.0231 41.0059 47.0059 41.0876 46.9848 41.1506C46.9115 41.3702 46.8844 41.5985 46.8633 41.8281C46.8549 41.921 46.8465 42.0079 46.78 42.0872C46.3695 42.5802 45.4169 42.6954 44.908 42.31C44.7482 42.1884 44.619 42.0374 44.564 41.8445C44.5082 41.6496 44.4206 41.6691 44.3002 41.7763C44.0778 41.9732 43.855 42.1721 43.6346 42.3721C43.4385 42.5495 43.242 42.726 43.0141 42.8619C42.8889 42.9361 42.7478 43.0309 42.6095 42.9915C42.3648 42.9221 42.2979 43.0525 42.2389 43.2374C42.1245 43.5945 42.0026 43.9484 41.8866 44.3043C41.8519 44.4107 41.818 44.5012 41.6977 44.5546C40.7196 44.989 39.9584 45.7072 39.2227 46.4585C38.7404 46.9511 38.2574 47.4429 37.7751 47.9367C37.7166 47.9957 37.6321 48.0399 37.6205 48.1324C37.6014 48.2834 37.499 48.3205 37.3706 48.3376C37.2526 48.3528 37.1315 48.3671 37.0283 48.4325C36.839 48.552 36.7162 48.7031 36.8342 48.9418C36.9035 49.0805 36.8987 49.2108 36.7684 49.3057C36.5747 49.4468 36.6512 49.5783 36.768 49.711C36.8182 49.768 36.8808 49.815 36.9366 49.8669C37.159 50.0773 37.1686 50.1773 36.9804 50.4077C36.9306 50.4691 36.8868 50.5241 36.8812 50.6078C36.8083 51.6994 36.3575 52.6595 35.8414 53.5973C35.5337 54.1572 35.2033 54.704 34.949 55.2919C34.9072 55.3888 34.8542 55.4469 34.7422 55.4398C34.6561 55.4338 34.5648 55.443 34.5581 55.3186C34.5553 55.2704 34.5262 55.2317 34.4799 55.2337C34.1675 55.254 34.1372 55.0663 34.201 54.7857C33.9558 54.9511 33.8088 54.8288 33.6649 54.6829C33.3975 54.4123 33.2042 54.0735 32.8706 53.8583C32.9551 53.9544 33.0428 54.048 33.1233 54.1473C33.256 54.3103 33.4118 54.4613 33.3269 54.7124C33.2919 54.8152 33.3867 54.9013 33.4509 54.9798C33.5924 55.1532 33.7398 55.3206 33.6689 55.5745C33.6581 55.6131 33.6944 55.6685 33.7159 55.7132C33.8586 56.0093 33.8104 56.1488 33.4967 56.2572C32.9479 56.4457 32.3724 56.4254 31.8033 56.4457C31.3697 56.462 30.9344 56.4377 30.5024 56.4947C30.3908 56.5091 30.276 56.5011 30.2027 56.6386C30.1322 56.7725 29.9815 56.708 29.8807 56.6693C29.6946 56.5988 29.5045 56.5776 29.3112 56.5477C29.1402 56.5214 28.9612 56.4907 29.0306 56.207C29.0832 55.993 28.8935 55.7726 28.9513 55.5294Z" fill="#A52422"/>
</svg>
