<svg width="34" height="34" viewBox="0 0 34 34" fill="none" xmlns="http://www.w3.org/2000/svg">
<path fill-rule="evenodd" clip-rule="evenodd" d="M17 34C26.3888 34 34 26.3888 34 17C34 7.61116 26.3888 0 17 0C7.61116 0 0 7.61116 0 17C0 26.3888 7.61116 34 17 34ZM16.4241 10.7219C16.7422 10.4037 17.258 10.4037 17.5761 10.7219L23.2782 16.4239C23.5963 16.7421 23.5963 17.2578 23.2782 17.5759L17.5761 23.278C17.258 23.5961 16.7422 23.5961 16.4241 23.278C16.106 22.9599 16.106 22.4441 16.4241 22.126L20.7356 17.8146H11.297C10.8471 17.8146 10.4824 17.4499 10.4824 17C10.4824 16.5501 10.8471 16.1854 11.297 16.1854H20.7357L16.4241 11.8739C16.106 11.5557 16.106 11.04 16.4241 10.7219Z" fill="#301A6F"/>
</svg>
