<svg width="100" height="100" viewBox="0 0 100 100" fill="none" xmlns="http://www.w3.org/2000/svg">
<circle cx="50" cy="50" r="50" fill="#C4A66C"/>
<path d="M30.3395 46.4531C30.2732 45.8329 29.9938 45.3499 29.5014 45.0043C29.0137 44.6586 28.3793 44.4858 27.598 44.4858C27.0488 44.4858 26.5777 44.5687 26.1847 44.7344C25.7917 44.9001 25.491 45.125 25.2827 45.4091C25.0743 45.6932 24.9678 46.0175 24.9631 46.3821C24.9631 46.6851 25.0317 46.9479 25.169 47.1705C25.3111 47.393 25.5028 47.5824 25.7443 47.7386C25.9858 47.8902 26.2533 48.018 26.5469 48.1222C26.8404 48.2263 27.1364 48.3139 27.4347 48.3849L28.7983 48.7259C29.3475 48.8537 29.8755 49.0265 30.3821 49.2443C30.8935 49.4621 31.3504 49.7367 31.7528 50.0682C32.16 50.3996 32.482 50.7997 32.7188 51.2685C32.9555 51.7372 33.0739 52.2865 33.0739 52.9162C33.0739 53.7685 32.8561 54.5189 32.4205 55.1676C31.9848 55.8116 31.3551 56.3158 30.5312 56.6804C29.7121 57.0402 28.7202 57.2202 27.5554 57.2202C26.4238 57.2202 25.4413 57.045 24.608 56.6946C23.7794 56.3442 23.1307 55.8329 22.6619 55.1605C22.1979 54.4882 21.947 53.669 21.9091 52.7031H24.5014C24.5393 53.2098 24.6955 53.6312 24.9702 53.9673C25.2448 54.3035 25.6023 54.5545 26.0426 54.7202C26.4877 54.8859 26.9848 54.9688 27.5341 54.9688C28.107 54.9688 28.6089 54.8835 29.0398 54.7131C29.4754 54.5379 29.8163 54.2964 30.0625 53.9886C30.3087 53.6761 30.4342 53.3116 30.4389 52.8949C30.4342 52.5161 30.3229 52.2036 30.1051 51.9574C29.8873 51.7064 29.5819 51.4981 29.1889 51.3324C28.8007 51.1619 28.3461 51.0104 27.8253 50.8778L26.1705 50.4517C24.9725 50.1439 24.0256 49.6776 23.3295 49.0526C22.6383 48.4228 22.2926 47.5871 22.2926 46.5455C22.2926 45.6884 22.5246 44.938 22.9886 44.294C23.4574 43.6501 24.0942 43.1506 24.8991 42.7955C25.7041 42.4356 26.6155 42.2557 27.6335 42.2557C28.6657 42.2557 29.5701 42.4356 30.3466 42.7955C31.1278 43.1506 31.741 43.6454 32.1861 44.2798C32.6312 44.9096 32.8608 45.634 32.875 46.4531H30.3395ZM40.7567 46.0909V48.0795H34.4854V46.0909H40.7567ZM36.0337 43.4773H38.6048V53.7188C38.6048 54.0644 38.6568 54.3295 38.761 54.5142C38.8699 54.6941 39.012 54.8172 39.1871 54.8835C39.3623 54.9498 39.5565 54.983 39.7695 54.983C39.9305 54.983 40.0773 54.9711 40.2099 54.9474C40.3472 54.9238 40.4513 54.9025 40.5224 54.8835L40.9556 56.8935C40.8183 56.9408 40.6218 56.9929 40.3661 57.0497C40.1152 57.1065 39.8074 57.1397 39.4428 57.1491C38.7989 57.1681 38.2189 57.071 37.7028 56.858C37.1867 56.6402 36.7771 56.304 36.4741 55.8494C36.1758 55.3949 36.029 54.8267 36.0337 54.1449V43.4773ZM47.6193 57.2131C46.5256 57.2131 45.581 56.9858 44.7855 56.5312C43.9948 56.072 43.3864 55.4233 42.9602 54.5852C42.5341 53.7424 42.321 52.7505 42.321 51.6094C42.321 50.4872 42.5341 49.5024 42.9602 48.6548C43.3911 47.8026 43.9924 47.1397 44.7642 46.6662C45.536 46.188 46.4427 45.9489 47.4844 45.9489C48.1567 45.9489 48.7912 46.0578 49.3878 46.2756C49.9891 46.4886 50.5194 46.8201 50.9787 47.2699C51.4427 47.7197 51.8073 48.2926 52.0724 48.9886C52.3376 49.6799 52.4702 50.5038 52.4702 51.4602V52.2486H43.5284V50.5156H50.0057C50.0009 50.0232 49.8944 49.5852 49.6861 49.2017C49.4777 48.8134 49.1866 48.508 48.8125 48.2855C48.4432 48.063 48.0123 47.9517 47.5199 47.9517C46.9943 47.9517 46.5327 48.0795 46.1349 48.3352C45.7372 48.5862 45.4271 48.9176 45.2045 49.3295C44.9867 49.7367 44.8755 50.1842 44.8707 50.6719V52.1847C44.8707 52.8191 44.9867 53.3636 45.2188 53.8182C45.4508 54.268 45.7751 54.6136 46.1918 54.8551C46.6084 55.0919 47.0961 55.2102 47.6548 55.2102C48.0289 55.2102 48.3674 55.1581 48.6705 55.054C48.9735 54.9451 49.2363 54.7865 49.4588 54.5781C49.6813 54.3698 49.8494 54.1117 49.9631 53.804L52.3636 54.0739C52.2121 54.7083 51.9233 55.2623 51.4972 55.7358C51.0758 56.2045 50.536 56.5691 49.8778 56.8295C49.2197 57.0852 48.4669 57.2131 47.6193 57.2131ZM54.6452 61.0909V46.0909H57.1737V47.8949H57.3228C57.4554 47.6297 57.6424 47.348 57.8839 47.0497C58.1254 46.7467 58.4521 46.4886 58.864 46.2756C59.2759 46.0578 59.8015 45.9489 60.4407 45.9489C61.2835 45.9489 62.0434 46.1643 62.7205 46.5952C63.4023 47.0213 63.9421 47.6534 64.3398 48.4915C64.7423 49.3248 64.9435 50.3475 64.9435 51.5597C64.9435 52.7576 64.747 53.7756 64.354 54.6136C63.9611 55.4517 63.426 56.0909 62.7489 56.5312C62.0719 56.9716 61.3048 57.1918 60.4478 57.1918C59.8228 57.1918 59.3043 57.0876 58.8924 56.8793C58.4805 56.6709 58.149 56.42 57.8981 56.1264C57.6519 55.8281 57.4601 55.5464 57.3228 55.2812H57.2163V61.0909H54.6452ZM57.1665 51.5455C57.1665 52.2509 57.266 52.8688 57.4648 53.3991C57.6684 53.9295 57.9596 54.3437 58.3384 54.642C58.7219 54.9356 59.186 55.0824 59.7305 55.0824C60.2987 55.0824 60.7745 54.9309 61.158 54.6278C61.5415 54.3201 61.8304 53.901 62.0245 53.3707C62.2234 52.8357 62.3228 52.2273 62.3228 51.5455C62.3228 50.8684 62.2257 50.267 62.0316 49.7415C61.8375 49.2159 61.5487 48.804 61.1651 48.5057C60.7816 48.2074 60.3034 48.0582 59.7305 48.0582C59.1812 48.0582 58.7148 48.2027 58.3313 48.4915C57.9478 48.7803 57.6566 49.1851 57.4577 49.706C57.2636 50.2268 57.1665 50.84 57.1665 51.5455ZM77.994 42.4545V57H75.359V45.0185H75.2738L71.8718 47.1918V44.777L75.4869 42.4545H77.994Z" fill="white"/>
</svg>
